<?xml version="1.0" encoding="utf-8"?>
<!-- Generator: Adobe Illustrator 26.0.3, SVG Export Plug-In . SVG Version: 6.00 Build 0)  -->
<svg version="1.1" id="Layer_1" xmlns="http://www.w3.org/2000/svg" xmlns:xlink="http://www.w3.org/1999/xlink" x="0px" y="0px"
	 viewBox="0 0 371 201" style="enable-background:new 0 0 371 201;" xml:space="preserve">
<style type="text/css">
	.st0{fill-rule:evenodd;clip-rule:evenodd;fill:#003865;}
	.st1{fill-rule:evenodd;clip-rule:evenodd;fill:#77B800;}
</style>
<desc>Created with Sketch.</desc>
<path id="Shape" class="st0" d="M266.4,40.2C267.7,40.9,266.1,39.4,266.4,40.2C266.5,40.3,266.4,40.2,266.4,40.2L266.4,40.2z"/>
<path id="Shape_00000064330956732732577060000004465321862536341916_" class="st0" d="M331.8,91.9c-0.7,0-1.5-0.1-1.5-0.1
	s-0.6,5.6-0.2,7.2C331.3,97.3,331.8,94,331.8,91.9L331.8,91.9z"/>
<path id="Shape_00000157993466613669611740000000439819655156870287_" class="st0" d="M340.7,67.9c-0.6,0.6-0.7,1.3-1.3,1.9
	c3.6,0.5,7.7-2.7,9.4-6c-1.1,0.4-2.7,1.9-3.7,2c0.4-0.3,0.6-0.7,0.8-1.2C344,65.2,342,66.6,340.7,67.9L340.7,67.9z"/>
<path id="Shape_00000018938806656667289860000006364518897603497092_" class="st0" d="M289.7,97.3c1,1.6,2.5,2.7,4.2,3.6
	c2.7,1.5,5-0.6,7.4-1.4c-0.1-2.9,1.5-5.7,2.4-8.4c0.3-1,1.2-1.7,2.3-1.7c1.7,0,3.7-2.7,4-4.7c-1.1,0.8-1.7,1.7-2.7,2.7
	c-2.3,2.4-3.8-1.5-3.8-3.2c-1.5,0.3-3.3,0.9-4.8,0.8c-1,0-4.4,4.2-5.2,5.3c-1.1,1.6-1.5,2.3-2,4.2C291.1,95.6,289.9,96.5,289.7,97.3
	C289.8,97.3,289.8,97.2,289.7,97.3L289.7,97.3z"/>
<path id="Shape_00000052812310088980090290000017329185953725956517_" class="st1" d="M232.3,59.7c0.9,1.5-0.1,4.7,1.6,5.3
	c0.4,0.1,0.9,0.3,1.2,0.6c1.9,1.6,11.2-0.4,13.9-0.7c-0.3-2.2-1.3-4.1-0.5-6.4c0.4-1.2,0.9-5.2,0.8-6.4c-5.3,1.1-1.1-5.5-1.5-6.5
	c-0.5-1.2-1.2-2-1-3.4c-0.8-0.2-1.5-0.7-1.7-1.5c-1-0.2-1.9,0.1-3-0.1c-3.5-0.7-6.3-1.7-9.1-3.5c-1.3-0.9-2.7,0.3-3.9-0.7
	c-1.3-1,0.3-1.1-1.8-0.3c-0.7,0.3-2.5,0.1-2.4,1c0.2,1.7,0.1,3.6-1.5,4.7c-1,0.7-1.7,0.6-0.8,1.8c1.3,1.7,0,4.2,0.2,6.1
	c0,0.2,2.9,1.5,3.4,1.9c1.3,1.1,3.1,2.3,4.3,3.5C231.8,56.4,231.5,58.3,232.3,59.7L232.3,59.7z"/>
<path id="Shape_00000116219846758552609680000006465351804853208499_" class="st0" d="M109.6,77.2c-2.8-0.4-1.4-4.5-1.2-6.2
	c0.4-2.9-0.3-2.2-3.1-2.6c-3.5-0.5-7-1.1-10.5-1.7c-2.1,11.6-4.2,23.3-6.4,34.9c-0.4,2,1.9,1.5,3.7,1.8c2.9,0.5,5.7,0.9,8.6,1.4
	c5.1,0.8,10.3,1.5,15.4,2.1c0.9-7.2,1.8-14.3,2.8-21.5c0.1-0.5,1-6.7,0.8-6.8C116.4,78.1,113,77.7,109.6,77.2L109.6,77.2z"/>
<path id="Shape_00000079454183595825396480000012108747711475170438_" class="st0" d="M212.3,143c-1.3-1-3.6-1.8-5.1-2
	c-3.5-0.5-6.1,2.7-8.9,0.3c-1.7-1.4-3.3,2.5-5.2-0.1c-1.4-0.3-1.3-0.1-2.9-0.1c-0.9,0-1.6-0.4-2.3-1c-1.2-1.2-1.3-0.3-2.8-0.8
	c-2.9-1-11.6-2.8-11.3-6.7c0.2-3.5,0.3-7,0.4-10.6c-1.4,0-15.9-0.7-15.9-0.7c-0.4,6.1-0.8,12.2-1.4,18.3c-0.3,3-0.5,6-0.7,9.1
	c-0.1,1.2,0.2,3.3-0.3,4.4c-0.2,2.5-3.5,1.8-5.1,1.7c-5.7-0.4-11.5-0.8-17.2-1.3c2.5,2.7,5.9,5.7,7.6,9c2.1,4,2.3,7.1,6.1,9.9
	c1.1,0.8,2.3,1.7,3.5,2.3c1.1-2,2.8-4,4.9-5.1c3.8-2,8.5-0.6,11.5,2.1c5.1,4.5,6.9,11.8,11.5,16.5c1.1,1.2,0.9,2.4,1,3.9
	c0.1,1.6,1.9,4.6,2.9,5.9c0.7,0.8,2.3,0.4,3.2,0.7c1.7,0.6,3.3,1,5,1.5C189.2,193,191,186,198,182c0.3-1.8,2.2-2.5,3.8-2.5
	c2,0,3.5-1.2,5.1-2.5c1.7-1.3,2.6-8.5,6-4.8c5-1.6,3.4-3.4,4.3-7.4c0.5-2.3,1.1-3-0.1-5.4c-0.6-1.6-2.2-3.2-2.6-4.7
	c-0.5-1.7-0.2-4.1-0.2-5.9c0-1.4-0.1-2.9-0.1-4.3C214.1,142.9,213.6,144,212.3,143L212.3,143z"/>
<path id="Shape_00000027585741589185094370000004040401903236010402_" class="st0" d="M278.5,122.7c0.8-2.5,3.1-4.3,5.4-5.3
	c1.6-0.7,2.7-2.2,3.8-3.4c0.7-0.7,3-1.5,4.1-2.1c-9.9,1.3-19.9,2.6-29.9,3.4c-2.4,0.2-4.4,0-6.1,1.4c-0.7,0.6-2,0.5-2.9,0.6
	c-0.6,0.1-6.1,0.2-6.2,0.6c-0.6,2.8-2.4,5.5-2.8,8.3c5.4-0.4,10.8-0.9,16.1-1.5C261.4,124.8,278,124.1,278.5,122.7L278.5,122.7z"/>
<path id="Shape_00000020366868507627304770000014986287026622514363_" class="st0" d="M156.2,61.8c6.5,0.5,12.9,0.8,19.4,1
	c3.6,0.1,7.2,0.2,10.9,0.3c1.4,0,2.3,0.8,3.4,1.6c2.1-1.3,4.9,0.1,6.9,0.6c0.4-1.7-1.1-3.9,0.1-5.3c0.9-1,0.4-2.7,0.4-4
	c0-2.6,0-5.2-0.1-7.8c0-1.6-2.9-2.3-2.3-4.6c-9.6,0-19.3-0.3-28.9-0.8c-2.6-0.1-5.1-0.3-7.7-0.5c-1.2-0.1-0.6,4.7-1,5.9
	C156.1,52.3,156.5,57.4,156.2,61.8L156.2,61.8z"/>
<path id="Shape_00000027584682036393409970000011357233880521479338_" class="st0" d="M289.7,125.2c0-0.1,11,9.8,12.9,11.4
	c3.2,2.7,1.7,4.4,6.4,2.3c4.6-2.1,4.8-6.4,7.1-10c1.2-1.9-3.3-3.7-5-4.9c-1.7-1.2-5,1.1-7,0.7c-2.2,0.3-1.7-2.1-3.6-2.1
	c-2,0-4,0.2-5.9,0.4C293.7,123,290.4,124.2,289.7,125.2L289.7,125.2z"/>
<path id="Shape_00000156569492227367022360000009353318755682289337_" class="st0" d="M302,79.6c4.7-0.8,9.4-1.7,14.1-2.6
	c5.1-1.1,10.6-1.4,14.1-5.1c-1.4-1.1-3.4-3-2.5-5c-0.8-1.1,0.8-3.7,0.6-3.8c-1-0.6-1.2-1.6-2-2.4c-1.8-1.7-12.4,1.9-14.9,2.4
	c-2.4,0.5-11,3.6-13,1.5c-0.6-0.6,0.2,6,0.3,6.4c0.5,3,1,5.9,1.6,8.9C300.7,79.8,301.5,79.8,302,79.6L302,79.6z"/>
<path id="Shape_00000067196181135650133120000015391522788926981258_" class="st0" d="M82.1,32.2c-1.5-2-4.4-1.8-6.8-2.3
	c-6.4-1.5-12.6-0.1-19-2.2c-2.8-0.9-5.9,1.1-7.8-2.3c-0.5-0.9,0.1-3.4-0.7-3.8c-2.1-0.8-2.1-0.9-2.7,1.4c-2,7.4-5,14.8-9.6,21
	c0.2,1-0.9,5-0.4,5.1c2.3,0.6,4.6,1.2,6.9,1.9c3.6,1,7.2,1.9,10.9,2.8c7,1.7,14,3.4,21.1,4.9c0.9-4.1,1.7-8.2,2.6-12.2
	c0.3-1.6,1.1-1.1,0.3-2.6c-1.1-2,0-3.9,1.4-5.3C79.4,37.3,83.1,33.5,82.1,32.2L82.1,32.2z"/>
<path id="Shape_00000057122632343679488240000000775932336830726833_" class="st0" d="M158.4,117.2c4.5,0.6,9.1,0.2,13.5,0.6
	c1.4,0.1,6.5-0.2,6.5,1.4c-0.1,3-0.2,6.1-0.3,9.1c0,1.1-0.1,2.2-0.1,3.3c-0.1,1.6,1.8,0.5,2.5,0.6c2,0.3,2,2.4,4.2,2.6
	c1.4,0.1,4.2-0.2,5.2,0.6c1.7,1.2-0.3,1,1.7,1c0.7,0,1.2,0.2,1.7,0.6c1.5,0.4,2.4-0.4,3.9-0.4c1.4,0,2.6,0.5,3.6,1.4
	c1.2-0.7,2.6-1,3.9-1.1c2.4-0.2,4.3-0.4,6.4,0.9c0-3.4,0-6.7-0.1-10.1c0-3.7-1.4-7.3-1.5-11c0-2-4.4-0.9-6.2-0.9h-11.5
	c-6.2,0-12.5-0.4-18.7-0.7c-2.7-0.1-5.5-0.2-8.2-0.4c-1.8-0.1-3.6-0.2-5.3-0.2C158.3,114.5,158.6,116.1,158.4,117.2L158.4,117.2z"/>
<path id="Shape_00000091016857941151474670000012716285259933424516_" class="st0" d="M79.9,108.7c1.1-0.5,2.3-0.4,3.3,0.2
	c1.3-4.7,1.6-10.1,2.5-14.8c1.3-7.4,2.7-14.8,4-22.2c0.3-1.9,0.7-3.8,1-5.7c0.1-0.6-5.2-1.2-6-1.4c-5.3-1-10.6-2.1-15.9-3.2
	c-2.4-0.5-4.7-1.1-7.1-1.6c-3.3-0.8-2.6,0-3.4,3.1c-1.4,5.6-2.8,11.3-4.2,16.9c-0.2,0.8,1.8,2.9,2.3,3.5c2.1,3.1,4.3,6.1,6.4,9.2
	c3.3,4.7,6.6,9.4,9.8,14.1c1.8,2.5,3.5,5,5.2,7.6C78,112.3,77.5,109.8,79.9,108.7C80.4,108.5,77.7,109.7,79.9,108.7L79.9,108.7z"/>
<path id="Shape_00000005251626949612110130000014668191353071079103_" class="st0" d="M127.4,150.2c1.2-2.4,6.1-0.6,8.1-0.5
	c5.5,0.5,11.1,0.9,16.6,1.3c0.7-10.4,1.5-20.8,2.2-31.3c0.1-1.2-0.1-2.8,0.4-3.9c1.1-2.3-3.5-1.5-5-1.7c-5-0.4-10-0.8-15-1.3
	c-2.2-0.2-4.5-0.4-6.7-0.7c-1.4-0.2-7.2-1.7-8.3-1c-0.4,0.3-0.4,3.2-0.5,3.7c-0.4,3-0.8,6.1-1.2,9.1c-0.9,7.2-1.9,14.5-2.8,21.7
	c-0.3,2.1-0.5,4.2-0.8,6.3c-0.2,1.5,3,1.3,4.3,1.5C118.9,147.1,125.9,153.2,127.4,150.2L127.4,150.2z"/>
<path id="Shape_00000144322275582354074970000016599120531335993475_" class="st0" d="M190.1,68.9c-1.7,0-2.4-1.4-3.8-1.9
	c-1.4-0.4-3.6-0.1-5.1-0.1c-3.1,0-6.1-0.2-9.2-0.3c-5.4-0.2-10.7-0.5-16.1-0.9c-0.2,2.8-0.4,5.6-0.6,8.4c-0.3,3.7-0.8,3.7,3.1,4
	c2.2,0.2,5.5-0.4,7.6,0.5c2.2,1,0.9,6.2,0.8,8c11.9,0.6,23.9,0.8,35.8,0.7c-1.8-2.7-1-5.8-1.9-8.7c-2.7-1.1-1.4-6.9-3.8-8.6
	C194.6,68.4,192.9,68.1,190.1,68.9L190.1,68.9z"/>
<path id="Shape_00000158728544730917231550000006931804236402377880_" class="st0" d="M177.5,39.2c6.3,0.1,12.7,0.3,19,0.3
	c-0.3-1.4-1-2.6-1.3-4.1c-0.1-2.7,0-6.2-1-8.7c-0.9-2-1.5-4.8-0.8-7c0.4-1.3-2.6-0.7-3.1-0.7c-5.6,0-11.2-0.2-16.8-0.5
	c-2.7-0.1-5.4-0.2-8.1-0.4c-2.3-0.1-5.8-1.7-6,1c-0.4,6.3-0.9,12.7-1.3,19C164.5,38.6,171,38.9,177.5,39.2L177.5,39.2z"/>
<path id="Shape_00000043417702622831895630000015843595091768731009_" class="st1" d="M297.1,111.9c-1,2.2-2.9,3.2-4.8,4.6
	c-1.2,0.8-1.7,0.6-2.8,1.7c-1.4,1.5-5.1,2.6-5.8,4.1c3.7-0.5,6.9-2.9,10.5-3.3c2.6-0.3,5.9-0.9,8.5-0.2c0.7,0.2,2.2,1.8,2.7,1.7
	c1.3-0.2,2.5-0.4,3.8-0.6c3.3-0.5,4.1,0.6,6.8,2.5c2.4,1.7,3.3,3.1,6.2,2.4c0.2-1.9,1.2-3.4,2.4-4.7c0.8-0.9,1.8-1.7,2.8-2.4
	c-0.6-1-0.3-2.2,0.7-2.8c-2-0.3-3.5-3-1.1-4c1.5-0.7,5.4,1.2,6.2-1c-1.7,0.1-9.8,0.5-6.6-3.6c-5.2,1-10.4,2-15.6,2.9
	C308.3,109.5,298,110,297.1,111.9L297.1,111.9z"/>
<path id="Shape_00000181071728849866105140000001453243646843887547_" class="st0" d="M112.8,42.5c0.1-0.3,0.3-0.5,0.5-0.8
	c0.4-0.4,1.1-0.6,1.7-0.6c3.8,0.6,7.6,1.1,11.5,1.6c9,1,18,2,27,2.7c0.6-9.2,1.3-18.5,2-27.7c0-0.2-24.5-2.7-27.2-3
	c-9.3-1.1-18.5-2.7-27.8-4.2c-2.1-0.3-4.1-0.8-6.2-1.2c-0.4-0.1-1.4,5.4-1.1,6.3c0.7,1.6,0.8,3.5,1.9,4.9s2,2.8,2.8,4.3
	c0.4,0.8,1.8,0.4,2.3,1.6c0.8,1.9-1.5,5.2-2,7.1c3.2-1.8,4,4.3,4.2,6c0.3,2.2,2.3,2.3,2.3,4.5c1.8-0.3,3.8,0,5.6,0.3
	C111.3,43,112.4,43.7,112.8,42.5z"/>
<path id="Shape_00000036957462407751503960000002268286277363531665_" class="st0" d="M241.9,130.5c-1.1,2.3-2.4,4.8-3.2,7.2
	c-1,2.6-1.1,4.7-0.8,7.7c0.1,1,0.4,1.6,0.9,2.5c2.5,4.2-1.8,7.6-2.8,11.4c3-0.2,8-1.6,10.8-0.7c2.1-0.1,2.6,2.2,1.9,3.7
	c-1.3,2.8,4.2,0.5,5.7,0.7c-1.5-11.3-1.2-22.1-1-33.5C249.6,130,245.7,130.2,241.9,130.5L241.9,130.5z"/>
<path id="Shape_00000003067085309164679380000013224135194636058522_" class="st0" d="M200.6,41.6c0,1-0.4,2-1.1,2.6
	c3.6,2,1.8,11.5,1.8,14.9c8.8-0.1,17.7-0.3,26.5-0.8c-0.5-1.2-2.7-1.6-3.5-2.8c-1.5-2.2-4.8-1.7-5.4-4.5c-0.3-1.4-0.4-2.9-0.2-4.2
	c0.3-2.1-2-3.2-0.4-5.5c1.9-2.6,2.3-2,2.4-5.2c0-0.9,0.3-1.8,0.8-2.6c0.6-0.8,1.4-1.5,2.1-2.1c2.4-2,3.9-4.8,6.6-6.5
	c-1.7-0.5-2.8,1.3-4.9,0.6c-0.8-0.3-1.3-0.7-1.9-1.2c-0.7-0.3-1.2,0.3-2.1,0.1c-1.8-0.5-2.5-2.8-4.3-2.8c-1.5,0-2.5,1.7-4.3,0.6
	c-1.2-0.8-2.5-0.8-3.9-1.1c-2.1-0.5-1.4-2.2-3.6-2.2c-2.6,0.1-5.2,0.1-7.9,0.1c0.3,1.6-0.5,3.3,0.1,5c1.2,3.8,1.7,7.5,1.8,11.6
	C199.3,37.5,200.6,39.4,200.6,41.6L200.6,41.6z"/>
<path id="Shape_00000018222935871603358250000004400820511549507203_" class="st0" d="M243.7,114.8c0.2-0.5,0.6-0.9,1.1-1.2
	c-2.4-1.3-1.9-4.5-3-6.5c-4.1,1.1-6.1-5.3-4.8-8c-3.5,0.6-2.5-3.3-4.4-4.6c-1.6-1.1-3-2.5-3.8-4.3c-1.6-3.3,0.5-4.6-4.2-4.2
	c-5.7,0.6-11.6,0.7-17.4,0.6c1,1.6,0.9,1,2.7,2.1c2.4,1.6,0.3,3.6,1.3,5.4c0.8,1.4,1.8,1.6,1.9,3.5c0.1,6,0.3,12.1,0.4,18.1
	c5.7-0.1,11.4-0.3,17-0.7c3.2-0.2,9.9-2.4,12.2,1.1C243,115.5,243.5,115.3,243.7,114.8L243.7,114.8z"/>
<path id="Shape_00000102529682926311707160000012529745340238074298_" class="st1" d="M235.3,150c-2-2.5-0.4-2.9-3.6-2.7
	c-2,0.1-3.9,0.2-5.9,0.3c-1.2,0.1-7.4,0.1-7.4,0.5c0,1.7,0.1,3.3,0.2,5c0,1.4,2.4,4.5,3,6.1c1.1,2.7-0.6,4.4-0.3,6.8
	c0.1,1.3,0.2,2.6,0,3.9c2.6-0.4,5.1,1.3,7.7,1.5c0.9-2.5,4.2-2,6-0.9c1.5,0.9,4.1,1.9,4.9,3.5c1.7,0.7,2.9-3.1,4.4-3.5
	c-2.3-0.1-4.5-2.4-3.2-4.7c1.2-2,3-0.9,3.3-2.9c-3,0.2-7.8,1.5-10.7,0.7C227.4,163.9,236.1,151.9,235.3,150
	C234.6,149.2,235.4,150.2,235.3,150L235.3,150z"/>
<path id="Shape_00000034776266438224437510000002182244853280489885_" class="st0" d="M196.1,91.5c-9.8,0-19.6-0.3-29.4-0.7
	c-0.3,6.8-0.7,13.6-1,20.4c14.6,0.6,29.2,0.9,43.8,0.6c-0.1-3.8,1.4-12-1.1-14.9c-0.9-1-2-2.4-2.2-3.7c-0.3-1.7,0.5-1.7-1.2-1.7
	C201.9,91.5,199,91.5,196.1,91.5L196.1,91.5z"/>
<path id="Shape_00000095309827430752731040000011387992249820719505_" class="st0" d="M239.2,70.2c1.1,2,0.2,4.5-1.2,6.2
	c-0.8,1-2,1.8-3.3,2.1c0.6,0.9,0.7,2,0.3,2.9c-1.4,3.2-4.6,6.4-0.8,9.3c1.6,1.2,3,2.1,3.4,4.2c3.2-0.5,4.6,2.5,3.6,5.1
	c-0.9,2.3-0.2,2.5,2.2,3.4c2.2,0.8,2.7,3.4,3,5.3c1.2-0.8,2.2-0.1,3-1.2c1-1.5,1.4-0.8,2-2.5c0.2-0.2,0.1-2.7,0.2-3.2
	c0.3-2,3.1-4.3,2.1-6.3c-1-1.9-0.4-5.3-0.6-7.6c-0.5-4.7,0.2-11.3-2.1-15.6c-0.6-1.1-0.6-3.4-1.9-3.2c-1.4,0.1-2.8,0.2-4.3,0.4
	c-2,0.2-3.9,0.2-5.9,0.4C239,69.8,239.1,70,239.2,70.2L239.2,70.2z"/>
<path id="Shape_00000160163749025779608240000009760911947433637288_" class="st1" d="M257.6,101.4c1.4,0,2.4-0.6,3.8-0.5
	c1.2-2.3,3.2-1,4.5-2.8c1.2-1.7,2-5.3,4.7-4.8c-0.6-2-0.4-4.9-0.6-7c-0.5-4.5-1.1-9-1.6-13.5c-2.9,0.3-5.9,0.7-8.8,1
	c-4.7,0.4-3.4,3.3-3,6.8c0.3,3.6,0.7,7.2,1,10.7s0.8,7-1.6,10.3C256.5,101.5,257,101.4,257.6,101.4L257.6,101.4z"/>
<path id="Shape_00000056423929662149767580000016086389887950354580_" class="st0" d="M90.1,14.6c0.3-1.5,0.6-3,0.9-4.6
	c0.4-1.8-0.4-1.4-2.2-1.9c-0.9,4.2-1.8,8.4-2.8,12.6c-0.5,2.4-2.2,7.1-0.5,9.2c2.3,2.8,0.2,4.6-1.2,7.2c-0.5,0.9-3.5,4.3-3.2,4.7
	c1.3,1.5,0.3,4.1-0.7,5.5c-1.2,3.8-1.7,8-2.5,11.9c10.4,2.1,20.9,4,31.5,5.5c0.8-5.5,1.6-11,2.5-16.5c-0.5,0.1-1.1-0.1-1.6-0.2
	c-1.3-0.3-2.7-0.5-4-0.5c-1.5,0-2.6,1.8-4.1,0.3c-0.7-0.7-1.2-1.6-1.4-2.5c-0.3-1.4-1.4-1.5-1.8-2.9c-0.3-1.2-0.4-2.5-0.6-3.8
	c-0.3-2-2.5-0.3-3.8-2.1c-1.6-2.3,0.3-5.9,1.1-8c0.1-0.4-2.2-3.9-2.7-4.6C90,20.2,90,19.1,90.1,14.6L90.1,14.6z"/>
<path id="Shape_00000176745684679271504390000016049441974616362675_" class="st0" d="M224.3,62.5c-7.7,0.3-15.4,0.6-23.2,0.6
	c0.3,1.5-0.7,2.7-0.2,4.2c1.6,5.3,3.7,9.8,4.3,15.3c0.6,0.7,5.1,0,6.3,0c2.6-0.1,5.1-0.2,7.7-0.3c2.2-0.1,9.3-1.9,11-0.1
	c1.2-2.2-1-4.5,1-6.5c2.3-2.3,6.8-1.9,2.5-5.5c-2.6-2.2-4.8-4-4.5-8C227.4,62.3,225.8,62.4,224.3,62.5L224.3,62.5z"/>
<path id="Shape_00000076561653168403950180000008610053622437488041_" class="st0" d="M112.2,73.5c12.9,1.7,25.8,3.2,38.8,4.2
	c0.5-7.1,1-14.2,1.5-21.2c0.1-2.1,0.3-4.2,0.4-6.3c0.1-1.5-3-0.9-4.2-1c-4-0.3-8.1-0.7-12.1-1.1c-3.6-0.3-7.1-0.8-10.7-1.2
	c-2.1-0.2-9.3-2.4-9.7-0.3c-1.1,7-2.1,14-3.1,21C112.8,69.5,112.5,71.5,112.2,73.5z"/>
<path id="Shape_00000124162903690463623880000015794580019277161634_" class="st0" d="M314,85.8c-0.5,2.7-2.7,3.6-3.4,5.9
	c-0.2,0.6-0.5,1.2-0.9,1.6c-0.2,0.2-0.4,0.3-0.7,0.5c-1.9,0.9-1.4-0.7-2.3,1.4c-0.5,1.3-1.4,2.6-1.4,4c0.2,4-5.8,6.2-9.3,6.2
	c-3,0-4.7-0.8-6.3,2.9c13-1.7,25.9-4,38.7-6.6c-2.3-2.8-1.3-6.3-3.7-8.4c-1.5,0-5.5-0.6-6.1-2.1c-0.4-0.9,0.3-4.4,0.3-4.4
	C318.1,86.8,315,86.4,314,85.8z"/>
<path id="Shape_00000152980231343532139720000000392200983767388551_" class="st1" d="M274.5,89.9c3,0.3,3.4,2.7,6.6,2.4
	c2.6-0.3,4.2-1,6.5,0.7c0.3-2.5,2.2-5,3.7-7.1c1.4-1.9,2.9-0.9,3.5-3.7c0.3-1.7,0.2-3.5,0.1-5.3c-0.2-2.9-0.3-5.6-0.8-8.7
	c-3.2,1.9-6.6,6-10.8,5.1c-3.5-0.7-5.4-1.4-9-0.8c-1.6,0.3-1.8-0.1-1.7,1.4c0.3,2.1,0.5,4.2,0.8,6.4
	C273.7,83.4,274.1,86.7,274.5,89.9L274.5,89.9z"/>
<path id="Shape_00000157309875187124699810000005186352994158092672_" class="st1" d="M333.9,61.8c0.8-2.4,2.2-0.5,1.7-3.3
	c-0.1-0.8-0.3-1.6-0.5-2.3c-0.6-1.8,0.2-4,0-5.8c-0.2-1.5-0.6-4.2-1.7-5c-1.8-1.3-2.5-8.2-2.9-10.4c-1.7,0.4-3.5,1.1-5.3,1.3
	c-3.1,0.4-3.6,4.2-5.1,6.2c-1.4,1.8,0.2,2.2,0.1,4.2c-0.2,2.4-2.2,4.9-4.4,5.9c-3.3,1.5-7,0.2-10.4,1.4c1.9,3-0.6,5.6-2.5,7.7
	c5.8-1,11.7-2.2,17.4-3.5c3.7-0.8,6.5-2.3,9.3,1C331,60.6,331.8,61.3,333.9,61.8L333.9,61.8z"/>
<path id="Shape_00000110456635181453184590000006007678919235457183_" class="st0" d="M274.7,94.9c-0.4,1.1-1.5,2.2-2.7,2.4
	c-1.2,0.2-1.9,2-2.8,3.2c-0.7,0.9-0.3,1.9-1.2,2.7c-1.4,1.2-2.7,0.3-3.9,1.4c-0.8,0.7-4.3,1.5-5.3,1.3c-1.5-0.3-1.9,0-3.3,0.5
	c-0.3,0.1-1.8,4.4-1.9,4.7c-0.6,1.9-2.7,2-4.2,1.3c0,0.4,0,0.9-0.1,1.3c3.4-0.3,5.2-1.7,8.8-2c6.3-0.5,12.5-1.1,18.8-1.8
	c3-0.4,7.3-0.2,9.2-3.2c0.7-1.9,2-2.6,3.4-3.9c-1.5-1.2-4.1-3.7-3.7-5.9c0.3-1.4-2.1-0.4-2.5-0.4c-1.1,0-2.3-0.1-3.4-0.1
	C278.1,96.4,274.9,94.4,274.7,94.9L274.7,94.9z"/>
<path id="Shape_00000060015783724833404630000000115152381137772458_" class="st1" d="M280.6,126.7c-2.1,0.3-4.2,0.5-6.2,0.8
	c1.3,4.3,2.6,8.7,3.9,13c0.6,2.1,2.3,3.8,2.9,5.9c0.4,1.5-0.7,2.7-0.9,4.2c0.4,1.2,0.7,2.4,0.8,3.6c0.4,2.4,0.8,3.2,3.4,3
	c4.8-0.3,9.6-0.7,14.4-1c0.5,0,1.6-2.1,3.1-2.2c0.6,0,1.5-5.1,1.7-5.7c0.6-2.7,0.7-1.8-0.5-3.7c-0.9-1.5-1.8-3.5-3-4.8
	c-2.9-2.9-6.5-5.2-9.4-8.1c-1.4-1.4-1.4-1.8-3-2.6c-1.1-0.5-2.3-1.5-2.6-2.7C284.9,125.6,281.5,126.5,280.6,126.7L280.6,126.7z"/>
<path id="Shape_00000051372883469694655540000011254222089247608246_" class="st0" d="M320.9,191c-0.7-4.6-1.5-7.4-4.1-11.5
	c-1.7-2.7-3.9-5.2-4.7-8.3c2.6,1.5,1.7,3.6,3.6,5.7c-0.8-1.3-0.8-2.7-1.3-3.9c-0.4-1.5-2.4-3.1-3.4-4.3c-1.6-2.1-2.9-4.3-4.1-6.6
	c-1.2-2.4-1-3.6-3.6-4c0.1,1.4-0.5,3.2-2.1,3.5c-1.7,0.3-2.6-1.3-4.5-1.2c-2.6,0.2-5.3,0.4-7.9,0.6c-2.3,0.2-4.6,0.3-6.9,0.5
	c-2.1,0.1-2.3-2-4.1-1.8c-4.2,0.5-8.4,1-12.7,1.4c0.5,0.9,0.6,2.1,0.3,3.1c3.7-1.1,7.8-1.2,11.1,0.9c1.4,0.9,2.3,3,3.9,2.6
	c1.5-0.4,2.5-1.3,3.9-1.8c1.5-0.6,0.6-1.6,2-1.9c4.1-1.1,6.1,3.8,8.9,5.5s4.2,1.9,4.1,5.4c0,1.6-0.2,3.2-0.5,4.7
	c-0.1,0.8,0.8,2.7,1.5,1.5c1.7-2.8,2-0.3,0.3,1.6c-1.1,1.2,3.1,5,4.4,5.2c-0.4-0.4-0.6-0.8-0.4-1.2c1.2,1,2.9,3.9,3.5,5.5
	c1,2.4,4.1,2.7,5.6,5c0.5,0.7,0.6,2.5,1.2,2.8c1.8,0,2.6-0.3,3.2-2.1c0.2-1.5,1.6-2.2,2.2-3.4C320.9,193.2,321.1,192.4,320.9,191
	L320.9,191z M318.1,196.8c-0.1-0.8-0.1-1.5,0.1-2.3C318.3,193.9,317.6,197.6,318.1,196.8C318,195.9,318.1,196.8,318.1,196.8
	L318.1,196.8z"/>
<path id="Shape_00000083053831857828951620000011842249037791329181_" class="st1" d="M138.5,109.3c7.7,0.6,15.4,1.2,23.1,1.7
	c0.5-9.5,0.9-19,1.4-28.5c-11.2-0.5-22.4-1.6-33.6-2.7c-1.2-0.1-5.4-1-5.5-0.2c-0.4,3-0.8,6-1.2,9c-0.8,6.3-1.6,12.6-2.4,18.9
	C126.4,108.1,132.4,108.7,138.5,109.3L138.5,109.3z"/>
<path id="Shape_00000171717572097167967570000016811238510244053159_" class="st0" d="M78.1,123.7c-0.6-6-6.8-11.9-10.2-16.8
	c-5.8-8.2-11.5-16.5-17.3-24.7c-1.6-2.3,0.4-6,1-8.5c1.2-5,2.5-10,3.7-15c0-0.1-20.6-6-22.2-6.3c-0.8,3.2-1.4,5.9-3,8.9
	c-1.5,3,1,5.8,0.4,8.9c-0.6,3.8-1.1,6.1,0.9,9.6c1.5,2.6,0.7,3.9,3,6.1c0.5-4.1,5.6-2.1,6.9,0.3c-1.1-1-3.7-2-5.2-1.8
	c-1.8,0.3,0.2,4.1,0.5,5c-1.2-1.1-1.7-1.7-1.6-3.3c-2.4,2-0.3,5.6,0.5,7.9c0.9,2.4-0.4,3-0.3,5.3c0.2,2.6,2.4,4.9,3.4,7.2
	c0.4,0.8,2,3.2,1.8,4.1c-0.3,1.4-1.2,1.8-0.2,3.3c1.6,2.4,4.7,3.8,7.2,5.2c1.2,0.7,2.4,1.3,3.5,2c1.9,1.2,1,2.2,2.1,3.7
	c1.5,1.9,3.8,2.1,4.9,4.7c0.6,1.4-0.4,6.2,1.5,6.4c3.8,0.4,7.6,0.8,11.4,1.2c2.7,0.3,3-0.7,2.9-2.3c0-0.9,0.1-1.9,0.4-2.8
	c0.2-0.8,0.8-1.4,1.4-1.9c0.9-0.9,0.7-2.1,1.3-3.2C78.2,124.6,77.9,126,78.1,123.7C78.1,123.6,78.1,124.3,78.1,123.7L78.1,123.7z
	 M38.5,87.2c-0.3,0-0.5-0.2-0.5-0.5C38.1,86.9,38.3,87,38.5,87.2C38.3,87.1,38.3,87,38.5,87.2L38.5,87.2z M37.7,91.2
	c-0.2,0.2-0.4,0.3-0.7,0.3C36.9,91.2,37.1,91.1,37.7,91.2C37.6,91.2,37.4,91.3,37.7,91.2L37.7,91.2z"/>
<path id="Shape_00000116920905801401296140000011573023701891777921_" class="st0" d="M113.7,110.6c-8.7-1.1-17.3-2.4-26-3.9
	c-0.2,2.4-1.6,9.4-5.7,6.7c0.1,2-1.5,5.9-0.6,7.5c0.8,1.4,2.6,4.5,1.4,6.3c-0.4,0.6-1,1-1.7,1.3c-1.1,0.5-0.8,1.8-1.3,2.8
	c-0.8,1.4-2.6,2-1.2,3.5s0.6,3.3-0.9,4.3c5.8,3.3,11.6,6.6,17.4,9.8c3.5,2,5.7,2.4,9.8,2.9c2.3,0.3,5.3,1.8,5.6-0.8
	c1-8,2.1-16.1,3.1-24.1c0.4-2.8,0.7-5.6,1.1-8.3C115.1,116.1,117.5,110.2,113.7,110.6L113.7,110.6z"/>
<path id="Shape_00000025400685156054652550000012084582237414980253_" class="st0" d="M238.7,127.7c0.7-1.8,1.5-3.4,2.2-5.1
	c-2.3,0.6-4-2-2.6-4c-8.1,0.5-16.2,1-24.3,1.2c1,4.2,1.1,8.2,1.1,12.5c0,2.4,0,4.8,0,7.2c0,0.1,2.9,0.5,3,2.1
	c0.2,0.7,0.1,1.6,0.1,2.4c2.1-0.1,15.8-0.1,15.7-1.3C231.6,138.3,237.2,131.8,238.7,127.7L238.7,127.7z"/>
<path id="Shape_00000117652450949962937250000013850699070417649086_" class="st0" d="M262.2,157.3c5-0.5,10-1.1,15-1.6
	c-0.3-1.5-1.1-3.5-1.1-5.1c0-1.2,0.5-2.4,0.9-3.5c-0.4-0.8-1.1-1.5-1.5-2.3c-1.5-2.9-2.2-6.4-3.1-9.5c-0.2-0.6-1.9-7.4-2.3-7.4
	c-3.5,0.4-7.1,0.7-10.7,1.1c-2.6,0.3-2,0.6-2,3.1c-0.1,4.2-0.2,8.3-0.2,12.5c-0.1,5.4,0.2,10.3,0.9,15.7c2.2-1.2,1.1,0.5,1.9-1.3
	C260.4,158.2,261.2,157.4,262.2,157.3L262.2,157.3z"/>
<path id="wa_1_" class="st0" d="M50.9,19.3C49.7,19,49.3,18,48,17.7c-2-0.5-1.1-1.1-0.7-2.7c-0.6,2.4,0.8,1.3,0.7,0
	c0-0.8-0.7-1.4-0.4-2.1c0.5,0.4,1,0.1,1.6,0c-0.4-0.4-1.2-1.5-1.5-0.5c-0.4-3.5,0.5-7.3,0-10.7c2.8,1.9,5.7,3.2,8.3,5.1
	c0.1-0.3,0.3-0.6,0.6-0.9c0,1.2,1.5,2.6-0.1,3.1c-0.1,0.5,0,2.9,0.5,3c1.2,0.3,1.5-7.6,1.7-8.5c0.6-0.5-1-3.6-0.2-3.4
	c1.5,0.4,3,0.8,4.5,1.2c5,1.4,9.9,2.6,14.9,3.7c2.5,0.6,4.9,1.1,7.4,1.6c1.5,0.3,0,3.8-0.3,5c-1.1,5.2-3.4,11.2-2.8,16.7
	c-3.4-0.7-7.2-2-10.7-2.3c-4.7,0.4-8.6,0.4-13.1-1c-1.8-0.6-4.6,0.7-5.9-1.1C51.4,22.2,53.3,20.6,50.9,19.3"/>
<path id="nj_2_" class="st0" d="M331.6,74c-0.7,1.5-1.1,2.6-0.9,4.2c0.1,0.8,1.5,1.5,2.1,2.1c2.2-1.1,0.7,1.8,1.5,2s7.1-14.6,1.1-13
	c-0.1-1.3,2.3-4.3,0.4-4.9c-1.4-0.5-4.9-2.6-5.5-0.4c-0.5,1.8-1.7,3.5-0.6,5.4C330.9,71.4,334.7,71.7,331.6,74"/>
<path id="vt_1_" class="st0" d="M341.4,30.8c0,0.6-0.2,1.8,0.3,2.4c-0.2,1.3-1.6,2.5-1.1,3.9c-0.5,1.9-1.3,7.7,0.4,9
	c-1.3,0.3-3.6,1.5-3.9-0.1c-0.1-0.4-1.3-5.2-1.7-4.1c-0.4-2.7-0.8-6.5-2.1-8.9C335.9,32.2,338.7,31.5,341.4,30.8"/>
<path id="nh_1_" class="st0" d="M350.4,43.9c-0.7,0.3-1.5,1.6-2.2,1.8c-1.5,0.3-3,0.7-4.6,1c-2.2,0.5-1.4-5.7-1.3-7
	c0.5-2.6,1-4.6,1.2-6.9c0.5-1.9-0.6-2.6,1.4-3.8c1,2.9,1.9,5.8,2.9,8.7C348.6,40,350.1,41.8,350.4,43.9L350.4,43.9z"/>
<path id="mi_upper_2_" class="st1" d="M239.7,30.9c1.8-0.5,5.4-5.8,5.6-0.8c-0.1-0.2-0.1-0.4-0.2-0.6c0.1,0.5,0.2,0.9,0.1,1.4
	c2.6-3.6,4.5,0.5,6.8,1.3c4.2,1.5,8.5-3.6,12.7-3.3c-0.7,3.1,1.6,2.2,3.5,2c0.4,0,3.4,3,3.6,3.6c-1.2,0.5-5.3-0.4-4.8,1.7
	c-1-0.6-3.6-2.6-4.7-1.3c-1.5,1.9-3.7,0.6-5,2.9c-1-0.9-1.7-0.2-2.5,0.9c-0.4-0.4-0.5-1-0.4-1.6c-1,2.3-2,4.5-2.9,6.8
	c-0.9-0.5-1.1-1.2-0.6-2.1c-1.7,0.6-0.9-1.2-1.1-2.1c-0.1-0.8-3-2.5-3.9-2.6c-2.3-0.2-4.1-0.5-6.3-1.2c-2.3-0.7-3.3-1.5-5.3-2.5
	C236.5,32.6,237.7,31.5,239.7,30.9z"/>
<path id="mi_lower_1_" class="st1" d="M271.3,69.5c2.3-0.4,4.5-0.7,6.8-1.1c3.4-0.7,2.1-6.9,4.9-8.4c0.4,0.1,0.5,0.4,0.3,0.9
	c2.7-1.5-0.7-9-1.9-10.7c-2.9-4-5.8,6-7.3,1.9c-0.7-1.9,3.1-3.7,2.9-5.3c-0.1-1.1-1.7-5.2-1.1-5.7c1.6-1.3-14-7.7-9.6-1
	c-5.1-0.4-7.2,8.9-7.2,12.2c0,5.4,6.1,13.4-0.2,18c4.1-0.4,8.2-0.9,12.3-1.4"/>
<path id="ma_2_" class="st0" d="M350.6,54.8c0.7,0.3,1.5,0.9,1.5,1.7c0.8-0.5,1.5-2.1,2.3-2.3c0,0.5,0.2,0.9,0.4,1.3
	c1-0.7,2.2-1.2,3.3-1.7c2.1-1.1-0.2-3.1-1.8-3.2c1.8,0.6,2.6,3.3-0.1,2.9c-0.8-0.1-2.7-2.3-2-2c-0.8-1.7-2.6-0.7-3.2-2
	c0.2-0.4,2.1-2.6,1.9-2.8c-1.1,0.2-1.4-0.4-1.6-1.5c-1.7,0.4-2.1,2-3.8,2.4c-1.8,0.4-3.6,0.7-5.4,1.1c-1.3,0.3-2.7,0.5-4.1,0.7
	c-1.4,0.3-0.9,3-1,4.2c-0.2,3.1,3.1,1.3,5.4,0.8c1.6-0.3,3.1-0.7,4.7-0.9C349.8,53.1,348.7,53.2,350.6,54.8"/>
<path id="me_1_" class="st0" d="M347.1,25.2c1.6-0.2,2.9-4.7,2.9-6.4c0-3.5,0.1-6.4,1.2-9.7c0.1-0.4,0.8-3.3,1.2-3.4
	c1.3-0.5,1.6,2.4,2.7,1.3c1-0.1,1.5-1.4,2.3-1.7c0.9-0.4,3.4,0.8,3.7,1.7c0.9,2.6,2.6,5.7,2.8,8.4c0.2,2.2,1.6,1,2.8,1.7
	c0.4,0.4,0.5,2.4,0.7,2.6c0.6,0.6,2.9-0.1,2.6,1.5c0.1,0.1-0.6,1,0.2,1c0.2,0,0.8-0.7,0.7,0.2c-0.3,3.5-7.5,3.4-7.2,6.8
	c-0.5-0.2-0.9-0.3-1.4-0.2c0.1-0.8,0.2-0.9-0.5-1.6c-1.1,2,0.4,4.8-1.9,5.2c-0.4,0.1-2,4.8-3.5,2.5c-1.3,2.1-0.8,5.1-2,7.2
	C350.1,38.1,348.9,30.6,347.1,25.2"/>
<path id="ri_2_" class="st0" d="M347.9,61.8c1.4-0.6,2.3-1.1,2-2.6c0.1-0.4-0.9-1.7,0.3-1.7c-0.4-0.4-0.8-1.6-1.5-1.8
	c-0.4-0.1-2.1,0.5-2,0.8C347.3,58.3,347.7,60,347.9,61.8"/>
<path id="ct_2_" class="st0" d="M343.8,57.2c-1,0.2-6.6,1.2-6.6,1.4c0.4,2.4,1.8,5.6,0.6,7.5c-0.7,1.2,1.6,0,1.8-0.1
	c1.8-1.7,1.9-2.1,4.3-2.7c1.4-0.7,2.1-0.6,1.7-2.3C345.2,59.7,345.2,57.3,343.8,57.2L343.8,57.2z"/>
<path id="md_2_" class="st0" d="M324.4,86.8c-0.5-1.1-0.8-2.4-0.6-3.6c0-0.4,1.7-4.3,2.1-3.5c1,2.1-1.3,4.6,0.4,7
	c0.3,0.6-0.3,1.6,0.6,1.6s2.1,0.3,2.7,1c0.9,1.3-0.2,1.7,1.4,1.8c2.2,0.2,2.9-2.8,2.9-4.3c-1,0.2-4.2,1.4-5,0.9
	c-0.6-0.3-1.2-4.1-1.4-4.8c-0.5-1.9-1.1-3.7-1.6-5.6c-0.1-0.3-4.6,0.9-5,1c-3.3,0.7-6.5,1.4-9.8,2.1c-2.1,0.4-4.2,0.8-6.3,1.2
	c-0.9,0.2,0.2,3.4,0.3,4.2c1.1-1.5,2.8-2.6,3.7-4c0.2-0.3,2.1,2,2,1c1.2,0.1,1.1-1.3,2.6-1.2c1.4,0.1,2.3,0.8,3.5,1.3
	c1,0.5,0.3,0.8,0.9,1.4c0.4,0.4,1.8,0.5,2.4,0.8C322.9,85.7,325,88.2,324.4,86.8z"/>
<path id="md_00000054988388139169414580000010951982863031435967_" class="st0" d="M320.2,89.3c0,0,3,0.8,3.3,0.9l0.4-2.6l-2.9-1.2
	L320.2,89.3z"/>
<path id="de_2_" class="st0" d="M327.7,77.1c0.3-1.5,1.3-1.9,1.1-0.2c-0.1,1.1,0.3,3,1.2,3.8c0.5,0.4,3.4,3.4,3.4,4.6
	c-1.6,0.3-3,1.3-3.5-0.4c-0.7-2.2-1.3-4.3-1.9-6.5"/>
<path id="Shape_00000100382641146195037790000013979353353572275345_" class="st0" d="M72.4,156.4c2.1-0.3,1.4-4.8-1-3.4
	C68.7,154.6,69.6,155.6,72.4,156.4C72.8,156.3,71.8,156.2,72.4,156.4L72.4,156.4z"/>
<path id="Shape_00000114058721404676847560000017131549938474401169_" class="st0" d="M99.4,168.3c2.4-0.2,4.8-2.6,1.1-3.3
	c-0.7-0.1-3-0.8-3.4-0.7C95.8,164.9,98.8,167.8,99.4,168.3C100,168.3,98.8,167.9,99.4,168.3L99.4,168.3z"/>
<path id="Shape_00000098929692243525654130000001154702818182357141_" class="st0" d="M105.8,183.2c1,0.6,2-1.5,2.7-2
	c1.4-0.9,3-1.1,4.5-2.1c2.3-1.6-4.9-6.2-6.2-6.7c-0.4-0.1-3.9-2-2.4,0.3c1.1,1.7-1.1,1.8-1.3,3.2c-0.2,1.2,0.7,2.4,1.2,3.5
	C105.1,181.5,103.6,181.6,105.8,183.2"/>
<path id="Shape_00000127037530732176255170000017518350643057697186_" class="st0" d="M86.8,162.1c2.5-0.8-0.8-4.9-2.8-3.2
	c-0.5,0.4-1.6,0-0.7,1.3C84.2,161.5,85.3,161.5,86.8,162.1C87.3,161.9,86.2,161.8,86.8,162.1L86.8,162.1z"/>
<path id="Shape_00000063605558580006328400000002660745212385388719_" class="st0" d="M95.1,164c0.6-0.2,1.3-0.4,1-1.2
	c-1,0.1-1.9,0.1-2.9-0.2c-1.1-0.6-1.8-0.4-2,0.8C92.7,163.5,93.7,163.8,95.1,164C95.7,163.8,94.3,163.9,95.1,164L95.1,164z"/>
<path id="Shape_00000080912444850435905320000017787049101367454652_" class="st0" d="M94.7,166.9c2.1-0.7-0.3-1.8-1.3-1.5
	C93.9,165.9,94.3,166.4,94.7,166.9C95,166.8,94.3,166.4,94.7,166.9L94.7,166.9z"/>
<path id="Shape_00000100345426655944866030000004474952964129109922_" class="st0" d="M24.4,173.8c1-0.3,1.2-0.3,1.7,0.5
	C26.6,174.9,23.5,174.6,24.4,173.8C24.8,173.6,23.9,174.2,24.4,173.8L24.4,173.8z"/>
<path id="Shape_00000011740882867754816400000007677656841702793379_" class="st0" d="M12.4,143.5c-1.2,0.1-0.6-1.1,0-1.3
	c0.2,1,1.1,1.8,1.5,2.9c0.7,1.9,0.3,0.8-1.2,0.9C13.1,145.4,13.1,143.8,12.4,143.5C11.3,143.6,13,143.8,12.4,143.5L12.4,143.5z"/>
<path id="Shape_00000093882806012872883480000005506982888606231960_" class="st0" d="M9.1,155.6c0.1-1.1,1.2-0.4,1.9,0
	C12.1,156.4,10,158.1,9.1,155.6C9.1,155.2,9.3,156.2,9.1,155.6L9.1,155.6z"/>
<path id="Shape_00000102515968071796448210000008265239814385673102_" class="st0" d="M0.7,171.1c0.4,0.1,3.7-0.4,2.6,1.2
	C2.9,172.9-0.3,171.7,0.7,171.1C1.1,171.2,0.3,171.4,0.7,171.1L0.7,171.1z"/>
<path id="Shape_00000099663851136703083610000004683914928523396999_" class="st0" d="M22.3,176.4c-1.5,0-1,1.1-1.9-0.5
	c-0.8-1.3,1.3-1.5,1.8-1.5s1.1,0.3,1.5,0c1-0.7,1,1.8,1,1.8C23.9,176.6,23.2,176.2,22.3,176.4C22,176.4,22.8,176.3,22.3,176.4
	L22.3,176.4z"/>
<path id="Shape_00000161598122188019649860000009277719882172972943_" class="st0" d="M50.4,186.8c-2.5-3.5,4.4-0.9,1.7,0.8
	c-0.9,0.6,0-1.7-1.4-0.2C50.6,187.2,50.5,187,50.4,186.8C50.2,186.3,50.5,187,50.4,186.8L50.4,186.8z"/>
<path id="Shape_00000147211666038058210730000003971939999226061954_" class="st0" d="M45.3,175.7c-0.4,1.6,3.3,0.7,2.6,1.5
	c-0.5,0.7,1.4,3.6,1.4,4.8c2.4-1.2,3.8-3,4.6,0.4c2.9,2.3,1.1,7.8,4.2,10c0.6,0.4,1.9,1.6,1.1,2.2c-0.6,0.5,0.1,3.4-1.6,3.1
	c-1.1-0.2,0.3-1.8,0.3-2.5c0-3.2-1.3-0.3-2.1-0.4c-0.6-0.1,0.8-2.1,0.3-2.8c-0.3-0.4-1.8-2.7-1.8-3c0-1.4,0.4-5-2-3.9
	c0.3-0.1-2-0.7-2.2-0.7c-0.6,0-1.3-2.1-1.6-2.6c-0.6-0.9-2.4-1.9-2-3.1c0.4-1.2-1.6-0.7-2.2-1.3c-1.1-1.1-1.7-1.7-3.2-2
	c-1.3-0.2-1-1.1-1.8-2c-0.9-1-3.6-3.2-3.7-4.2c-0.8,0.8-0.5,2.1-1.6,2.7c-0.7,0.4-1.4-0.5-2.2-0.2c-0.9,0.4-3.3,1.2-4.3,0.4
	c-0.4-0.3,1.6-1,1.7-1.2c-3.3-0.1,4.3-4.3,3.9-2.9c0.4-1.7-3.4-0.5-3.8-0.3c-0.9,0.5-1.6,1.5-2.6,1.7c-1,0.3-1.9,0-2.8,0.7
	c0,0.4,1.4,1.1,0.9,1.6c-0.2,0.1-2.5,1.1-2.6,1.1c-1.1-0.2-2.5-0.2-3.6,0.1c-1,0.2-1.7,1.5-2.9,0.8c-0.4-0.2-5.4,1.1-5.4,0.3
	c0,0.3-3.8-1.2-3.9-1.2c-1.8,0-4.6-1-1.3-1c1.1,0,1.7-0.8,2.9-0.2c0.8,0.4,0.2,1.3,1.3,0.9c2.1-0.8,3.7-0.3,5.6-1
	c0.7-0.2,4.5-2.3,4.6-2.8c0.2-0.8-2.4-0.1-2-1.9c-0.7,0.1-0.6,1.2-1.2,1.2c-0.5,0-0.2-1.9-0.1-2.1c-1.2,0.4-0.4-0.9-1.5-1.2
	c-0.4-0.1-1.5,0.2-1.9,0c-0.6-0.3,3.9-3.8,1.2-4.6c-0.5-0.1-2.6-0.6-1.7-1.5c0.1-2.6-0.4-1.8,1.5-3.3c-1.5-0.9,0.1-1.5-0.7-2.3
	c0.7-0.9,4-2.1,5.2-2.4c1.6-0.3,0.6,1.9,2.6,1.2c1.2-0.4,1.3,1.7,2.4,0.5c0.4-0.5,0.7-1,1-1.6c0.4-1,1.2-0.5,1.4-1.2
	c0.3-0.9-2.6-0.5-2.8-0.5c0-0.8-0.9-1.4-1.9-1.9c-1.2-0.6-2-4.2,0-3.2c-1.4-3.7,0.5-1.7,2.9-2.1c0.6-0.1,2.9,0.3,1.9,1.2
	c-1.7,1.6,1.4,2.3,2.5,2.6c-0.9-1.5,0.1-2.4-0.5-3.6c-0.3-0.6,0.1-2.8,0-2.8c-0.3-1.7-0.8-2.3,0.4-3.5c0.8-0.8,1.3,0.1,1.9,0.5
	c1.2,0.9,2.7-0.2,3.8-0.8c1-0.6,9.2,0.2,8.4,1.4c-0.3,0-0.5,0-0.7,0.1c0.3-0.5,2.6,1.7,3.1,2.3c1.9,2.3,4.3,5.2,7.3,6.2
	c4.4,1.5,1.9,5,0.9,7.9C50.5,160.7,47.9,168.2,45.3,175.7L45.3,175.7z"/>
</svg>
