<?xml version="1.0" encoding="utf-8"?>
<!-- Generator: Adobe Illustrator 26.3.1, SVG Export Plug-In . SVG Version: 6.00 Build 0)  -->
<svg version="1.1" id="Layer_1" xmlns="http://www.w3.org/2000/svg" xmlns:xlink="http://www.w3.org/1999/xlink" x="0px" y="0px"
	 viewBox="0 0 371 201" style="enable-background:new 0 0 371 201;" xml:space="preserve">
<style type="text/css">
	.st0{fill:#003865;}
</style>
<path class="st0" d="M198.9,164.9c-1.5,0-2.7,1.1-3,2.5l0,0.2c-2.2,5.1-4.8,6.6-11.5,6.6c-6.2,0-8.4-1.7-11.4-6.9l0-0.1
	c-0.3-1.4-1.5-2.4-2.9-2.4H29.6c10.7-1.5,22.5-4,34.7-6.5c44.9-9.4,95.9-20,118.5,9.1l0.9,1.1h3.2l0.8-1.1
	c23-29,73.8-18.2,118.6-8.7c11.1,2.4,21.8,4.6,31.7,6.2H198.9z M89,35.3c7.5-0.9,16.7-4.1,26.4-7.5c13.1-4.6,28-9.8,40.6-9.8
	c12.9,0,21.4,5.3,26.6,16.6v97.5c-9.9-9.7-23.9-14.6-42.5-14.6c-19.6,0-41.4,5.2-60.7,9.9c-14.2,3.4-27.6,6.6-37.8,7.2L89,35.3z
	 M215.8,17.3c12.4,0,26.9,5.2,39.7,9.9c9.8,3.6,19.1,6.9,26.8,7.8l47.1,100c-11.3-0.6-25.5-4-40.4-7.6c-19.9-4.8-40.4-9.8-59.3-9.8
	c-18.2,0-31.9,4.8-41.8,14.6V34.9C193.9,22.9,202.8,17.3,215.8,17.3 M366.6,170.2c0.3-0.2,0.5-0.4,0.7-0.7c0.5-0.9,0.6-2,0.2-2.9
	L314.8,57.3c-0.5-1-1.5-1.7-2.7-1.7h-4.8l-0.1-0.3l-1.3-0.8h-1.8l-1.9-3.9l-1.3-0.8h-1.6l-1.9-3.9l-1.3-0.8h-1.5l-1.9-3.9l-1.3-0.8
	h-1.4l-1.9-3.9l-0.7-0.5l-2.4-5.1l-1.2-0.1c-7.3-0.6-16.8-4-26.9-7.7C243.9,18.4,229,13,215.8,13c-13.7,0-23.7,5.7-30.5,17.4
	c-6.1-11.2-15.7-16.7-29.4-16.7c-13.3,0-28.5,5.3-42,10c-10,3.5-19.4,6.8-26.6,7.4l-1.2,0.1l-2.1,4.3h-0.4l-1.3,0.8l-1.9,3.9h-1.4
	L78,41.2l-1.9,3.9h-1.5l-1.3,0.8l-1.9,3.9h-1.6l-1.3,0.8l-1.9,3.9h-1.8l-1.3,0.8l-0.1,0.3h-4.6c-1.1,0-2.2,0.7-2.7,1.7L2.8,166.6
	c-0.5,0.9-0.4,2,0.1,2.9c0.2,0.3,0.4,0.4,0.6,0.6c-0.9,0.5-1.5,1.4-1.5,2.5c0,1.7,1.3,3,3,3h160.8c3.9,5.7,8.8,9.3,18.5,9.3
	c6.6,0,13.9-1.2,18.9-9.3H365c1.7,0,3-1.3,3-3C368,171.6,367.4,170.7,366.6,170.2"/>
</svg>
