<?xml version="1.0" encoding="UTF-8"?>
<svg width="139px" height="246px" viewBox="0 0 139 246" version="1.1" xmlns="http://www.w3.org/2000/svg" xmlns:xlink="http://www.w3.org/1999/xlink">
    <!-- Generator: Sketch 43.2 (39069) - http://www.bohemiancoding.com/sketch -->
    <title>Group 4</title>
    <desc>Created with Sketch.</desc>
    <defs>
        <polygon id="path-1" points="0.121071837 0.324221198 95.6129371 0.324221198 95.6129371 95.7277258 0.121071837 95.7277258 0.121071837 0.324221198"></polygon>
    </defs>
    <g id="Homepage" stroke="none" stroke-width="1" fill="none" fill-rule="evenodd">
        <g id="Desktop-Corporate-Homepage" transform="translate(-1024.000000, -2656.000000)">
            <g id="Group-4" transform="translate(1024.000000, 2656.000000)">
                <g id="Group-3" transform="translate(12.481633, 0.242599)">
                    <mask id="mask-2" fill="white">
                        <use xlink:href="#path-1"></use>
                    </mask>
                    <g id="Clip-2"></g>
                    <path d="M0.121071837,48.0258318 C0.121071837,74.3705046 21.4964351,95.7277258 47.8655861,95.7277258 C74.2347371,95.7277258 95.6129371,74.3705046 95.6129371,48.0258318 C95.6129371,21.681159 74.2347371,0.323937788 47.8655861,0.323937788 C21.4964351,0.323937788 0.121071837,21.681159 0.121071837,48.0258318" id="Fill-1" fill="#77B800" mask="url(#mask-2)"></path>
                </g>
                <polygon id="Fill-4" fill="#553100" points="62.8699837 28.5440488 60.3492612 231.265053 67.5460571 231.265053"></polygon>
                <polygon id="Fill-6" fill="#543107" points="43.2491408 59.3482935 63.9482265 78.8622152 62.4413531 80.310441"></polygon>
                <polygon id="Fill-8" fill="#543107" points="80.7860057 47.0561724 63.7451731 69.8287438 62.3824057 67.7972599"></polygon>
                <path d="M76.5051461,53.1450691 C76.5051461,54.7315991 81.0683176,56.0177143 86.6975339,56.0177143 C92.3267502,56.0177143 96.890489,54.7315991 96.890489,53.1450691 C96.890489,51.5585392 92.3267502,50.272424 86.6975339,50.272424 C81.0683176,50.272424 76.5051461,51.5585392 76.5051461,53.1450691" id="Fill-10" fill="#63941C"></path>
                <path d="M33.9003412,71.2437539 C33.9003412,72.8308507 38.46408,74.1163991 44.0932963,74.1163991 C49.7202433,74.1163991 54.2856841,72.8308507 54.2856841,71.2437539 C54.2856841,69.657224 49.7202433,68.3711088 44.0932963,68.3711088 C38.46408,68.3711088 33.9003412,69.657224 33.9003412,71.2437539" id="Fill-12" fill="#63941C"></path>
                <path d="M48.6455747,52.1672475 C47.4155665,52.4750309 47.3049339,56.2540217 48.39424,60.6089018 C49.4858155,64.9632152 51.3677053,68.2434041 52.5960114,67.9356207 C53.8260196,67.6272705 53.9389216,63.8482797 52.8490482,59.4962336 C51.7557706,55.139653 49.8755829,51.8588972 48.6455747,52.1672475" id="Fill-14" fill="#63941C"></path>
                <path d="M37.7972771,54.3296668 C37.3428322,54.8114641 38.3623547,56.5017221 40.0723384,58.1029894 C41.778918,59.7042567 43.533722,60.6140032 43.9858976,60.1327728 C44.4386404,59.6492751 43.419118,57.9607175 41.7108363,56.3594502 C40.0025547,54.7559157 38.2477506,53.8478696 37.7972771,54.3296668" id="Fill-16" fill="#6FA521"></path>
                <path d="M48.0951347,34.7732336 C46.9854041,35.9097083 49.3546449,40.0134871 53.3805388,43.9432521 C57.408702,47.8718834 61.5735959,50.1357636 62.6833265,48.9992889 C63.7930571,47.8645147 61.4277878,43.7590355 57.3996245,39.8304041 C53.3697592,35.9006392 49.2031633,33.636759 48.0951347,34.7732336" id="Fill-18" fill="#63941C"></path>
                <path d="M71.6461033,27.7508406 C70.5488543,27.1126009 67.8267237,29.7381124 65.562442,33.6162968 C63.3004298,37.4927806 62.3529604,41.1538728 63.44794,41.790412 C64.5412176,42.4286516 67.2650502,39.8031401 69.5298992,35.9283567 C71.7936135,32.0479051 72.7410829,28.3890802 71.6461033,27.7508406" id="Fill-20" fill="#63941C"></path>
                <path d="M71.31534,41.1701972 C70.0507237,41.2110083 69.1418339,44.8806028 69.2893441,49.3681189 C69.4368543,53.855635 70.5823278,57.4572111 71.8509155,57.4164 C73.1178012,57.3738885 74.026691,53.704294 73.8769114,49.2184783 C73.7294012,44.731529 72.5839278,41.1276857 71.31534,41.1701972" id="Fill-22" fill="#63941C"></path>
                <path d="M62.5486384,21.7263912 C61.8910833,21.7541654 61.4366384,23.6751194 61.5404629,26.0143866 C61.64372,28.3519535 62.2604261,30.2269949 62.9236547,30.1975203 C63.5829118,30.1680456 64.0373567,28.2487922 63.9301282,25.9089581 C63.8302751,23.5696908 63.2095976,21.6969166 62.5486384,21.7263912" id="Fill-24" fill="#63941C"></path>
                <path d="M0,243.238282 C3.60889388,235.166194 11.7089061,229.536535 21.128,229.536535 C21.2828857,229.536535 21.4326653,229.545604 21.585849,229.547871 C22.8345796,225.364738 26.5336816,222.237024 31.0191265,221.822111 C36.5745878,210.863775 47.9436531,203.347171 61.0805714,203.347171 C79.6833102,203.347171 94.7645265,218.414388 94.7645265,237.002125 C94.7645265,239.132802 94.5580122,241.216434 94.1773224,243.238282 L0,243.238282 Z" id="Fill-26" fill="#77B800"></path>
                <path d="M33.9006249,154.464477 C47.3785188,154.464477 58.3044861,143.548652 58.3044861,130.081002 C58.3044861,116.61562 47.3785188,105.699795 33.9006249,105.699795 C20.4204616,105.699795 9.49449429,116.61562 9.49449429,130.081002 C9.49449429,143.548652 20.4204616,154.464477 33.9006249,154.464477 Z" id="Fill-30" fill="#77B800"></path>
                <polygon id="Fill-32" fill="#543107" points="35.1857792 119.99914 33.900171 223.617288 37.5794159 223.617288"></polygon>
                <path d="M103.900625,142.464477 C117.378519,142.464477 128.304486,131.548652 128.304486,118.081002 C128.304486,104.61562 117.378519,93.6997949 103.900625,93.6997949 C90.4204616,93.6997949 79.4944943,104.61562 79.4944943,118.081002 C79.4944943,131.548652 90.4204616,142.464477 103.900625,142.464477 Z" id="Fill-30" fill="#77B800"></path>
                <polygon id="Fill-32" fill="#553100" points="105.185779 107.99914 103.900171 211.617288 107.579416 211.617288"></polygon>
                <polygon id="Fill-34" fill="#543107" points="25.1593971 135.745577 35.7398502 145.718213 34.9716624 146.457914"></polygon>
                <polygon id="Fill-36" fill="#543107" points="44.3461629 129.461014 35.6362527 141.101802 34.940118 140.063388"></polygon>
                <path d="M42.1596078,132.575465 C42.1596078,133.385451 44.490269,134.042396 47.3678527,134.042396 C50.246571,134.042396 52.5755302,133.385451 52.5755302,132.575465 C52.5755302,131.763778 50.246571,131.105133 47.3678527,131.105133 C44.490269,131.105133 42.1596078,131.763778 42.1596078,132.575465" id="Fill-38" fill="#63941C"></path>
                <path d="M20.3815416,141.825065 C20.3815416,142.635051 22.7139049,143.293696 25.5914886,143.293696 C28.4668029,143.293696 30.8014355,142.635051 30.8014355,141.825065 C30.8014355,141.013378 28.4668029,140.354733 25.5914886,140.354733 C22.7139049,140.354733 20.3815416,141.013378 20.3815416,141.825065" id="Fill-40" fill="#63941C"></path>
                <path d="M27.9205045,132.073716 C27.2924514,132.232425 27.2317453,134.164149 27.7911494,136.387785 C28.3471494,138.614822 29.3093698,140.292043 29.9374229,140.133333 C30.567178,139.978024 30.62448,138.046301 30.0662106,135.819264 C29.5085086,133.593928 28.5468555,131.916706 27.9205045,132.073716" id="Fill-42" fill="#63941C"></path>
                <path d="M22.3725322,133.180772 C22.13992,133.424505 22.6624465,134.29004 23.5361608,135.106828 C24.4076057,135.92645 25.3051486,136.391242 25.5360588,136.145809 C25.766969,135.898676 25.2461445,135.034841 24.3746996,134.215786 C23.4992833,133.398431 22.6051445,132.933639 22.3725322,133.180772" id="Fill-44" fill="#63941C"></path>
                <path d="M27.63598,123.183933 C27.0709024,123.763224 28.2782167,125.863293 30.3376861,127.870403 C32.3971555,129.879781 34.5247065,131.036661 35.0937555,130.455671 C35.6605351,129.874113 34.4509514,127.774611 32.3931841,125.7692 C30.3320127,123.759823 28.2044616,122.602942 27.63598,123.183933" id="Fill-46" fill="#63941C"></path>
                <path d="M39.6735502,119.59341 C39.1158482,119.266922 37.7230114,120.608018 36.5673257,122.591889 C35.4071012,124.575194 34.9254237,126.444 35.4848278,126.771055 C36.0430971,127.095276 37.4370686,125.75418 38.5916196,123.772576 C39.7512767,121.790972 40.2352237,119.919899 39.6735502,119.59341" id="Fill-48" fill="#63941C"></path>
                <path d="M39.5037433,126.453409 C38.8592371,126.473815 38.3923106,128.350557 38.4711718,130.643912 C38.5471963,132.937266 39.1326984,134.778865 39.7806086,134.756193 C40.4268167,134.736354 40.8909065,132.859612 40.814882,130.566257 C40.7394249,128.272902 40.1539229,126.431303 39.5037433,126.453409" id="Fill-50" fill="#63941C"></path>
                <path d="M35.0251065,116.515746 C34.6892371,116.528216 34.4566249,117.509949 34.5099555,118.70594 C34.5615841,119.901364 34.8753269,120.85929 35.2151678,120.844553 C35.5533065,120.829248 35.7842167,119.848082 35.7325882,118.652659 C35.6809596,117.456668 35.3632453,116.499308 35.0251065,116.515746" id="Fill-52" fill="#63941C"></path>
                <polygon id="Fill-34" fill="#543107" points="95.1593971 122.745577 105.73985 132.718213 104.971662 133.457914"></polygon>
                <polygon id="Fill-36" fill="#543107" points="114.346163 116.461014 105.636253 128.101802 104.940118 127.063388"></polygon>
                <path d="M112.159608,119.575465 C112.159608,120.385451 114.490269,121.042396 117.367853,121.042396 C120.246571,121.042396 122.57553,120.385451 122.57553,119.575465 C122.57553,118.763778 120.246571,118.105133 117.367853,118.105133 C114.490269,118.105133 112.159608,118.763778 112.159608,119.575465" id="Fill-38" fill="#63941C"></path>
                <path d="M90.3815416,128.825065 C90.3815416,129.635051 92.7139049,130.293696 95.5914886,130.293696 C98.4668029,130.293696 100.801436,129.635051 100.801436,128.825065 C100.801436,128.013378 98.4668029,127.354733 95.5914886,127.354733 C92.7139049,127.354733 90.3815416,128.013378 90.3815416,128.825065" id="Fill-40" fill="#63941C"></path>
                <path d="M97.9205045,119.073716 C97.2924514,119.232425 97.2317453,121.164149 97.7911494,123.387785 C98.3471494,125.614822 99.3093698,127.292043 99.9374229,127.133333 C100.567178,126.978024 100.62448,125.046301 100.066211,122.819264 C99.5085086,120.593928 98.5468555,118.916706 97.9205045,119.073716" id="Fill-42" fill="#63941C"></path>
                <path d="M92.3725322,120.180772 C92.13992,120.424505 92.6624465,121.29004 93.5361608,122.106828 C94.4076057,122.92645 95.3051486,123.391242 95.5360588,123.145809 C95.766969,122.898676 95.2461445,122.034841 94.3746996,121.215786 C93.4992833,120.398431 92.6051445,119.933639 92.3725322,120.180772" id="Fill-44" fill="#63941C"></path>
                <path d="M97.63598,110.183933 C97.0709024,110.763224 98.2782167,112.863293 100.337686,114.870403 C102.397156,116.879781 104.524707,118.036661 105.093756,117.455671 C105.660535,116.874113 104.450951,114.774611 102.393184,112.7692 C100.332013,110.759823 98.2044616,109.602942 97.63598,110.183933" id="Fill-46" fill="#63941C"></path>
                <path d="M109.67355,106.59341 C109.115848,106.266922 107.723011,107.608018 106.567326,109.591889 C105.407101,111.575194 104.925424,113.444 105.484828,113.771055 C106.043097,114.095276 107.437069,112.75418 108.59162,110.772576 C109.751277,108.790972 110.235224,106.919899 109.67355,106.59341" id="Fill-48" fill="#63941C"></path>
                <path d="M109.503743,113.453409 C108.859237,113.473815 108.392311,115.350557 108.471172,117.643912 C108.547196,119.937266 109.132698,121.778865 109.780609,121.756193 C110.426817,121.736354 110.890907,119.859612 110.814882,117.566257 C110.739425,115.272902 110.153923,113.431303 109.503743,113.453409" id="Fill-50" fill="#63941C"></path>
                <path d="M105.025107,103.515746 C104.689237,103.528216 104.456625,104.509949 104.509956,105.70594 C104.561584,106.901364 104.875327,107.85929 105.215168,107.844553 C105.553307,107.829248 105.784217,106.848082 105.732588,105.652659 C105.68096,104.456668 105.363245,103.499308 105.025107,103.515746" id="Fill-52" fill="#63941C"></path>
                <path d="M35.5,244.258041 C35.8326848,243.426145 37.6619692,236.601313 41.8155473,237.268053 C43.6153573,237.55636 44,231.729936 49,227.614968 C54,223.5 60.5,225.5 64.2491118,227.614968 C67.8691269,229.657109 70.5627305,236.601313 75.3823211,236.43487 C80.1993402,236.269392 90.8343258,235.437174 95.1560142,240.596282 C99.4773812,245.755712 97.4828794,244.258041 97.4828794,244.258041 L35.5,244.258041 Z" id="Fill-1" fill="#714F47"></path>
                <path d="M13,244.258041 C13.3323634,243.426145 15.1619692,236.601313 19.3155473,237.268053 C23.4694468,237.933506 28.12157,236.601313 29.6175266,232.774398 C31.1141262,228.945873 36.4296904,225.950854 41.7491118,227.614968 C47.064676,229.278116 48.0627305,236.601313 52.8819997,236.43487 C57.6993402,236.269392 68.3343258,235.437174 72.6560142,240.596282 C76.9770597,245.755712 74.9806293,244.258041 74.9806293,244.258041 L13,244.258041 Z" id="Fill-11" fill="#60423C"></path>
                <path d="M43.7846029,245.675779 C47.3912273,237.603124 55.4918069,231.974032 64.9126029,231.974032 C65.0657865,231.974032 65.2149988,231.981401 65.3687498,231.984802 C66.6191824,227.802235 70.3165824,224.67282 74.8003253,224.259608 C80.3557865,213.302972 91.7282559,205.784668 104.862905,205.784668 C123.466211,205.784668 138.549129,220.853585 138.549129,239.437355 C138.549129,241.5703 138.338644,243.653364 137.960223,245.675779 L43.7846029,245.675779 Z" id="Fill-28" fill="#629505"></path>
            </g>
        </g>
    </g>
</svg>